<?xml version="1.0" encoding="utf-8"?>
<!-- Generator: Adobe Illustrator 15.0.2, SVG Export Plug-In . SVG Version: 6.00 Build 0)  -->
<!DOCTYPE svg PUBLIC "-//W3C//DTD SVG 1.1//EN" "http://www.w3.org/Graphics/SVG/1.1/DTD/svg11.dtd">
<svg version="1.1" id="Layer_1" xmlns="http://www.w3.org/2000/svg" xmlns:xlink="http://www.w3.org/1999/xlink" x="0px" y="0px"
	 width="1920px" height="1080px" viewBox="0 0 1920 1080" enable-background="new 0 0 1920 1080" xml:space="preserve">
<polygon fill="#7F7F7F" points="645.839,402.824 645.839,546.409 1215.765,1080 0,1080 0,-2.537 1158.561,-2.537 "/>
<g>
	<polygon fill="#3B3B3B" points="141.402,373.487 174.411,564.209 504.509,564.209 541.183,373.487 	"/>
	<polygon fill="#3B3B3B" points="226.679,560.811 269.776,560.811 160.656,930.342 141.402,930.342 	"/>
	<polygon fill="#3B3B3B" points="461.421,560.811 418.322,560.811 527.441,930.342 546.695,930.342 	"/>
	<polygon fill="#3B3B3B" points="504.415,419.329 627.29,402.824 627.29,544.955 504.415,524.779 	"/>
	<path display="none" fill="#3B3B3B" d="M332.573,271.701c0,60.271-48.848,109.12-109.12,109.12
		c-60.25,0-109.121-48.851-109.121-109.12c0-60.266,48.871-109.113,109.121-109.113
		C283.725,162.588,332.573,211.435,332.573,271.701z M223.453,186.106c-11.389,0-20.633,9.236-20.633,20.631
		c0,11.396,9.243,20.632,20.633,20.632c11.392,0,20.63-9.235,20.63-20.632S234.845,186.106,223.453,186.106z M281.728,218.534
		c-11.389,0-20.629,9.237-20.629,20.632s9.24,20.63,20.629,20.63c11.391,0,20.632-9.236,20.632-20.63
		C302.359,227.771,293.118,218.534,281.728,218.534z M281.728,279.955c-11.389,0-20.629,9.235-20.629,20.63
		c0,11.396,9.24,20.632,20.629,20.632c11.391,0,20.632-9.233,20.632-20.632C302.36,289.188,293.118,279.955,281.728,279.955z
		 M223.453,313.065c-11.389,0-20.633,9.233-20.633,20.63c0,11.395,9.243,20.633,20.633,20.633c11.392,0,20.63-9.237,20.63-20.633
		C244.083,322.299,234.845,313.065,223.453,313.065z M163.406,279.955c-11.389,0-20.629,9.235-20.629,20.63
		c0,11.396,9.24,20.632,20.629,20.632c11.39,0,20.633-9.233,20.633-20.632C184.039,289.188,174.798,279.955,163.406,279.955z
		 M163.406,218.534c-11.389,0-20.629,9.237-20.629,20.632s9.24,20.63,20.629,20.63c11.39,0,20.633-9.236,20.633-20.63
		C184.04,227.771,174.798,218.534,163.406,218.534z"/>
	<path display="none" fill="#3B3B3B" d="M524.723,348.859c-42.617,42.615-111.698,42.615-154.316-0.008
		c-42.606-42.6-42.613-111.696,0-154.312c42.618-42.615,111.708-42.599,154.301,0C567.339,237.158,567.339,306.244,524.723,348.859z
		 M508.989,210.273c-8.062-8.055-21.116-8.062-29.175,0c-8.06,8.059-8.06,21.125,0,29.172c8.049,8.062,21.112,8.062,29.175,0.006
		C517.048,231.393,517.034,218.325,508.989,210.273z M528.537,274.414c-8.059-8.06-21.125-8.06-29.184,0
		c-8.061,8.054-8.051,21.12,0,29.173c8.059,8.056,21.125,8.06,29.184,0C536.599,295.527,536.599,282.466,528.537,274.414z
		 M485.102,317.84c-8.06-8.054-21.125-8.062-29.176,0c-8.056,8.061-8.056,21.121,0,29.179c8.049,8.056,21.116,8.062,29.176,0
		C493.159,338.961,493.159,325.893,485.102,317.84z M419.392,302.93c-8.045-8.051-21.111-8.057-29.172,0
		c-8.059,8.06-8.059,21.122,0,29.179c8.061,8.056,21.127,8.06,29.187,0C427.453,324.052,427.453,310.984,419.392,302.93z
		 M397.734,241.219c-8.059-8.054-21.127-8.06-29.186,0c-8.048,8.054-8.048,21.119,0,29.178c8.057,8.049,21.127,8.056,29.186-0.004
		C405.789,262.338,405.789,249.272,397.734,241.219z M442.702,191.643c-8.061-8.056-21.127-8.056-29.186,0
		c-8.06,8.058-8.049,21.125,0,29.178c8.059,8.055,21.125,8.062,29.186,0C450.76,212.762,450.747,199.697,442.702,191.643z"/>
</g>
</svg>
